<?xml version="1.0" ?><svg xmlns="http://www.w3.org/2000/svg" xmlns:xlink="http://www.w3.org/1999/xlink" version="1.1" id="Layer_1" viewBox="0 0 1500 1500" style="enable-background:new 0 0 1500 1500;" xml:space="preserve"><style type="text/css">
	.st0{fill:none;stroke:#C1C2C6;stroke-width:11;stroke-linecap:round;stroke-linejoin:round;stroke-miterlimit:10;}
	.st1{fill:#C1C2C6;}
	.st2{fill:#FFB53D;}
	.st3{fill:#FFFFFF;}
	.st4{fill:#EF4743;}
	.st5{fill:#221F44;}
	.st6{fill:none;stroke:#221F44;stroke-width:38.4375;stroke-linecap:round;stroke-miterlimit:10;}
	.st7{fill:#417FF0;}
	.st8{fill:none;stroke:#FFFFFF;stroke-width:2.6784;stroke-miterlimit:10;}
</style><line class="st0" x1="1323.47" y1="756" x2="1323.47" y2="824"/><line class="st0" x1="1357.47" y1="790" x2="1289.47" y2="790"/><circle class="st1" cx="1166.9" cy="1116.5" r="19.75"/><circle class="st2" cx="1074.63" cy="810.6" r="82.37"/><g><g><g><g><ellipse class="st3" cx="1074.78" cy="810.5" rx="60.36" ry="30.97"/></g><circle class="st4" cx="1074.78" cy="810.5" r="20.24"/></g></g></g><g><g><rect x="624.21" y="492.91" transform="matrix(0.8828 -0.4698 0.4698 0.8828 -179.5706 451.196)" class="st2" width="380.2" height="185.02"/><rect x="974.27" y="338.93" transform="matrix(0.8828 -0.4698 0.4698 0.8828 -97.9344 543.9351)" class="st5" width="133.36" height="258.54"/><rect x="397.74" y="672.8" transform="matrix(0.8828 -0.4698 0.4698 0.8828 -283.6214 335.3512)" class="st2" width="264.82" height="126.38"/><rect x="325.4" y="790.88" transform="matrix(0.8828 -0.4698 0.4698 0.8828 -340.187 270.0421)" class="st5" width="91.21" height="51.6"/><rect x="290.93" y="803.69" transform="matrix(0.8828 -0.4698 0.4698 0.8828 -361.2657 246.5043)" class="st5" width="44.76" height="86.91"/></g><line class="st6" x1="661.02" y1="859.84" x2="397.52" y2="1239.57"/><line class="st6" x1="719.28" y1="879.47" x2="719.93" y2="1240"/><line class="st6" x1="758.14" y1="834.06" x2="1017.53" y2="1236.71"/><path class="st2" d="M720.35,894.65L720.35,894.65c-55.17,0-99.9-44.73-99.9-99.9v-66.25l58.89-27.34l12.62,27.34l128.29-60.99   v127.24C820.25,849.93,775.52,894.65,720.35,894.65z"/><circle class="st5" cx="721.4" cy="797.91" r="42.06"/></g><line class="st0" x1="275.62" y1="332" x2="275.62" y2="402.54"/><line class="st0" x1="240.35" y1="367.27" x2="310.9" y2="367.27"/><rect x="581.53" y="256" class="st7" width="262.09" height="127.39"/><line class="st8" x1="641.77" y1="345.9" x2="642.11" y2="367.32"/><line class="st8" x1="695.74" y1="333.26" x2="695.74" y2="368.97"/><line class="st8" x1="747.72" y1="319.11" x2="747.72" y2="367.32"/><line class="st8" x1="795.66" y1="303.93" x2="795.66" y2="367.32"/><polyline class="st8" points="614.48,340.56 697.95,294.11 697.95,322.24 788.52,280.28 "/><polygon class="st3" points="792.62,289.58 784.9,271.86 804.11,274.03 "/><polygon class="st2" points="1230.08,317.52 1253.55,347.07 1288.91,333.88 1268.06,365.33 1291.53,394.89 1255.17,384.78   1234.32,416.23 1232.7,378.53 1196.34,368.41 1231.7,355.22 "/><g><path class="st2" d="M355.7,573.48v-70.19c38.77,0,70.19,31.43,70.19,70.19c0,38.77-31.43,70.19-70.19,70.19   s-70.19-31.43-70.19-70.19H355.7z"/><path class="st4" d="M279.23,566.79c0.3-12.08,2.5-21.96,6.89-30.75l63.3,30.75H279.23z"/><path class="st7" d="M286.12,528.36c12.08-21.96,37.09-38.44,62.6-38.44v70.19L286.12,528.36z"/></g></svg>
